<?xml version="1.0" standalone="no"?>
<!DOCTYPE svg PUBLIC "-//W3C//DTD SVG 20010904//EN"
 "http://www.w3.org/TR/2001/REC-SVG-20010904/DTD/svg10.dtd">
<svg version="1.0" xmlns="http://www.w3.org/2000/svg"
 width="584.000000pt" height="423.000000pt" viewBox="0 0 584.000000 423.000000"
 preserveAspectRatio="xMidYMid meet">

<g transform="translate(0.000000,423.000000) scale(0.100000,-0.100000)"
fill="#000000" stroke="none">
<path d="M0 2115 l0 -2115 2920 0 2920 0 0 2115 0 2115 -2920 0 -2920 0 0
-2115z m4060 29 l0 -265 -52 3 -53 3 -3 250 c-1 137 0 255 3 262 3 8 23 13 55
13 l50 0 0 -266z m-2185 106 c4 -7 12 -7 25 0 10 5 30 10 45 10 25 0 26 -2 23
-52 -3 -51 -4 -53 -33 -56 -52 -6 -55 -14 -55 -148 l0 -124 -50 0 -50 0 0 190
0 190 44 0 c25 0 48 -5 51 -10z m424 -16 c36 -30 39 -45 44 -222 l4 -133 -66
0 c-36 0 -85 -1 -108 -1 -106 -4 -147 134 -62 207 17 14 40 25 52 25 46 0 67
12 67 36 0 19 -5 24 -25 24 -16 0 -25 -6 -25 -15 0 -12 -13 -15 -56 -15 -56 0
-56 0 -50 28 4 15 22 42 41 60 31 29 41 32 94 32 49 0 65 -4 90 -26z m662 -3
c32 -32 35 -47 18 -85 -17 -37 -60 -51 -97 -32 -16 8 -32 22 -35 31 -4 8 -13
15 -22 15 -29 0 -53 -38 -69 -112 -21 -93 -52 -128 -120 -135 -25 -3 -51 -12
-57 -19 -17 -21 -70 -17 -96 8 -31 29 -30 72 2 103 33 34 70 32 105 -5 51 -54
94 -29 111 65 6 33 17 72 25 86 19 37 61 69 91 69 14 0 36 9 50 20 35 27 59
25 94 -9z m265 18 c4 -8 9 -8 17 0 6 6 32 11 58 11 87 0 125 -69 117 -216 -5
-101 -30 -148 -88 -165 -31 -9 -44 -9 -69 4 l-31 15 0 -79 0 -80 -52 3 -53 3
-3 245 c-1 134 0 250 3 257 6 16 91 18 101 2z m535 -5 c41 -21 69 -84 69 -156
l0 -57 -95 -3 -94 -3 12 -25 c15 -30 67 -39 105 -18 22 11 26 10 43 -11 27
-33 24 -48 -13 -71 -84 -51 -193 -25 -233 55 -44 90 -15 253 53 289 36 20 115
20 153 0z"/>
<path d="M2200 2037 c-34 -17 -36 -70 -2 -75 26 -4 35 13 30 57 -3 29 -4 30
-28 18z"/>
<path d="M2886 2194 c-9 -22 17 -49 39 -40 10 3 15 15 13 28 -4 29 -42 37 -52
12z"/>
<path d="M2506 1964 c-7 -19 10 -44 30 -44 16 0 33 30 27 48 -7 18 -50 15 -57
-4z"/>
<path d="M3241 2156 c-8 -9 -11 -45 -9 -98 3 -79 4 -83 27 -86 15 -3 30 3 38
14 16 21 17 137 3 165 -12 22 -43 25 -59 5z"/>
<path d="M3656 2155 c-13 -35 -7 -45 30 -45 33 0 35 2 32 28 -2 21 -9 28 -29
30 -17 2 -29 -3 -33 -13z"/>
</g>
</svg>
